# xmcd
#
# Track frame offsets:
#	150
#	10067
#	24650
#	39432
#	51117
#	63970
#	74712
#	87327
#	99130
#	113737
#	126642
#	141212
#	155485
#	165147
#	184147
#	202722
#
# Disc length: 2842 seconds
#
# Revision: 2
# Processed by: cddbd v1.5.1PL0 Copyright (c) Steve Scherf et al.
# Submitted via: MusicWizard 7.0.2
#
DISCID=cf0b1810
DTITLE=Various Artist - The Heart Of Country
DYEAR=1996
DGENRE=Country
TTITLE0=Bobby Bare - Book Of Love
TTITLE1=Dolly Parton - Sweet Summer Lovin'
TTITLE2=Alabama - Love In The First Degree
TTITLE3=Chet Atkins - You're Just In Love
TTITLE4=Ed Bruce - Old Loves Never Die
TTITLE5=Hank Locklin - Please Help Me, I'm Falling
TTITLE6=Dottie West - Would You Hold It Against Me
TTITLE7=Din Gibson - I Can't Stop Loving You
TTITLE8=Ronnie Milsap - Don't You Know How Much I Love You
TTITLE9=Jim Reeves - Have I Told You Lately That I Love You
TTITLE10=Willie Nelson - What Now My Love
TTITLE11=Charley Pride - Amazing Love
TTITLE12=Skeeter Davisis - Am I That Easy To Forget?
TTITLE13=K.T. Oslin - '80 Ladies
TTITLE14=Earl Thomas Conley - I Need A Good Woman Bad
TTITLE15=Connie Smith - Once A Day
EXTD=
EXTT0=Bobby Bare\n
EXTT1=Dolly Parton\n
EXTT2=Alabama\n
EXTT3=Chet Atkins\n
EXTT4=Ed Bruce\n
EXTT5=Hank Locklin\n
EXTT6=Dottie West\n
EXTT7=Don Gibson\n
EXTT8=Ronnie Milsap\n
EXTT9=Jim Reeves\n
EXTT10=Willie Nelson\n
EXTT11=Charley Pride\n
EXTT12=Skeeter Davis\n
EXTT13=K.T. Oslin\n
EXTT14=Earl Thomas Conley\n
EXTT15=Connie Smith\n
PLAYORDER=
